<svg xmlns="http://www.w3.org/2000/svg" xmlns:xlink="http://www.w3.org/1999/xlink" width="40" zoomAndPan="magnify" viewBox="0 0 30 30.000001" height="40" preserveAspectRatio="xMidYMid meet" version="1.2"><defs><clipPath id="36271e142f"><path d="M 16 7 L 29.511719 7 L 29.511719 26.121094 L 16 26.121094 Z M 16 7 "/></clipPath><clipPath id="aa956cfded"><path d="M 9.058594 3.863281 L 22 3.863281 L 22 23 L 9.058594 23 Z M 9.058594 3.863281 "/></clipPath><clipPath id="ce21fb8cca"><path d="M 0.484375 13 L 5 13 L 5 17 L 0.484375 17 Z M 0.484375 13 "/></clipPath></defs><g id="11d729d14a"><g clip-rule="nonzero" clip-path="url(#36271e142f)"><path style=" stroke:none;fill-rule:nonzero;fill:#ffffff;fill-opacity:1;" d="M 29.5 26.035156 C 28.910156 25.097656 28.324219 24.160156 27.734375 23.226562 L 26.851562 21.820312 L 25.960938 20.417969 L 24.183594 17.613281 L 22.515625 14.988281 L 24.664062 11.835938 L 25.230469 11.003906 C 25.417969 10.730469 25.605469 10.453125 25.796875 10.179688 L 26.9375 8.527344 L 27.402344 7.859375 L 21.308594 7.820312 L 21.179688 8.050781 C 20.992188 8.386719 20.808594 8.722656 20.625 9.058594 L 20.484375 9.3125 L 20.351562 9.570312 L 20.074219 10.078125 L 19.53125 11.09375 L 19.253906 11.621094 C 19.148438 11.460938 19.042969 11.300781 18.9375 11.140625 L 18.613281 10.65625 L 18.289062 10.175781 L 17.960938 9.691406 L 17.628906 9.210938 C 17.40625 8.894531 17.179688 8.574219 16.953125 8.261719 C 16.9375 8.234375 16.914062 8.226562 16.886719 8.242188 C 16.859375 8.257812 16.855469 8.28125 16.871094 8.308594 C 17.039062 8.660156 17.207031 9.007812 17.382812 9.355469 L 17.644531 9.878906 L 17.910156 10.398438 L 18.449219 11.429688 C 18.628906 11.773438 18.8125 12.117188 18.996094 12.457031 L 19.261719 12.953125 L 19.578125 12.453125 C 19.785156 12.128906 19.988281 11.804688 20.191406 11.476562 L 20.800781 10.496094 L 21.101562 10.003906 L 21.253906 9.757812 L 21.402344 9.511719 C 21.550781 9.261719 21.703125 9.011719 21.851562 8.761719 C 21.972656 8.761719 25.613281 8.75 25.757812 8.746094 L 25.132812 9.738281 C 24.953125 10.023438 24.773438 10.304688 24.59375 10.585938 L 24.054688 11.433594 L 21.890625 14.8125 L 21.777344 14.988281 L 21.890625 15.152344 L 23.765625 17.890625 L 25.648438 20.628906 L 26.585938 21.996094 L 27.53125 23.359375 C 28.160156 24.273438 28.789062 25.183594 29.421875 26.089844 C 29.441406 26.113281 29.460938 26.117188 29.488281 26.101562 C 29.511719 26.085938 29.515625 26.0625 29.5 26.039062 Z M 29.5 26.035156 "/></g><g clip-rule="nonzero" clip-path="url(#aa956cfded)"><path style=" stroke:none;fill-rule:nonzero;fill:#ffffff;fill-opacity:1;" d="M 21.191406 20.609375 L 20.929688 20.085938 L 20.664062 19.566406 L 20.125 18.535156 C 19.941406 18.191406 19.761719 17.847656 19.578125 17.507812 L 19.3125 17.011719 L 18.992188 17.511719 C 18.789062 17.835938 18.585938 18.160156 18.382812 18.488281 L 17.773438 19.46875 L 17.472656 19.960938 L 17.320312 20.207031 L 17.171875 20.453125 C 17.023438 20.703125 16.871094 20.953125 16.722656 21.203125 C 16.601562 21.203125 12.960938 21.214844 12.816406 21.21875 L 13.441406 20.226562 C 13.617188 19.941406 13.800781 19.660156 13.980469 19.378906 L 14.519531 18.53125 L 16.683594 15.152344 L 16.796875 14.976562 L 16.683594 14.8125 L 14.808594 12.078125 L 12.925781 9.347656 L 11.988281 7.984375 L 11.042969 6.621094 C 10.414062 5.710938 9.785156 4.804688 9.152344 3.898438 C 9.132812 3.875 9.113281 3.871094 9.089844 3.886719 C 9.0625 3.902344 9.058594 3.925781 9.074219 3.949219 C 9.664062 4.886719 10.25 5.820312 10.839844 6.757812 L 11.722656 8.15625 L 12.613281 9.558594 L 14.390625 12.355469 L 16.058594 14.976562 L 13.910156 18.128906 L 13.34375 18.960938 C 13.15625 19.234375 12.96875 19.511719 12.777344 19.789062 L 11.636719 21.4375 L 11.175781 22.105469 L 17.265625 22.144531 L 17.394531 21.914062 C 17.582031 21.578125 17.765625 21.242188 17.949219 20.902344 L 18.089844 20.648438 L 18.5 19.886719 L 19.042969 18.871094 L 19.316406 18.34375 L 19.636719 18.824219 L 19.957031 19.308594 L 20.285156 19.792969 L 20.613281 20.273438 L 20.945312 20.753906 C 21.167969 21.070312 21.390625 21.390625 21.621094 21.703125 C 21.636719 21.726562 21.65625 21.730469 21.683594 21.714844 C 21.707031 21.703125 21.710938 21.683594 21.699219 21.65625 C 21.535156 21.304688 21.367188 20.957031 21.191406 20.609375 Z M 21.191406 20.609375 "/></g><g clip-rule="nonzero" clip-path="url(#ce21fb8cca)"><g style="fill:#ff3131;fill-opacity:1;"><g transform="translate(0.638486, 16.392046)"><path style="stroke:none" d="M 3.921875 0 L 0.34375 0 L 0.34375 -3.0625 L 1.625 -3.0625 L 1.625 -0.765625 L 3.921875 -0.765625 Z M 3.921875 0 "/></g></g></g><g style="fill:#ff3131;fill-opacity:1;"><g transform="translate(4.955619, 16.392046)"><path style="stroke:none" d="M 5.140625 0 L 3.84375 0 L 3.5625 -0.5 L 1.625 -0.5 L 1.328125 0 L 0.03125 0 L 2 -3.0625 L 3.1875 -3.0625 Z M 3.125 -1.265625 L 2.59375 -2.1875 L 2.0625 -1.265625 Z M 3.125 -1.265625 "/></g></g><g style="fill:#ffffff;fill-opacity:1;"><g transform="translate(10.44937, 16.392046)"><path style="stroke:none" d="M 3.734375 0 L 0.1875 0 L 0.1875 -0.75 L 2.21875 -2.3125 L 0.1875 -2.3125 L 0.1875 -3.0625 L 3.734375 -3.0625 L 3.734375 -2.3125 L 1.703125 -0.75 L 3.734375 -0.75 Z M 3.734375 0 "/></g></g><g style="fill:#ffffff;fill-opacity:1;"><g transform="translate(24.14725, 16.392046)"><path style="stroke:none" d="M 4.53125 0 L 3.3125 0 C 3.257812 -0.0703125 3.21875 -0.171875 3.1875 -0.296875 C 3.164062 -0.390625 3.132812 -0.476562 3.09375 -0.5625 C 3.0625 -0.65625 2.992188 -0.726562 2.890625 -0.78125 C 2.796875 -0.84375 2.65625 -0.878906 2.46875 -0.890625 L 1.625 -0.890625 L 1.625 0 L 0.34375 0 L 0.34375 -3.0625 L 2.4375 -3.0625 C 2.9375 -3.0625 3.335938 -3.023438 3.640625 -2.953125 C 3.953125 -2.878906 4.175781 -2.757812 4.3125 -2.59375 C 4.457031 -2.4375 4.53125 -2.226562 4.53125 -1.96875 C 4.53125 -1.757812 4.476562 -1.582031 4.375 -1.4375 C 4.28125 -1.289062 4.128906 -1.171875 3.921875 -1.078125 C 4.117188 -0.992188 4.25 -0.894531 4.3125 -0.78125 C 4.375 -0.664062 4.410156 -0.535156 4.421875 -0.390625 C 4.441406 -0.265625 4.476562 -0.132812 4.53125 0 Z M 1.625 -1.640625 L 2.359375 -1.640625 C 2.566406 -1.640625 2.726562 -1.648438 2.84375 -1.671875 C 2.96875 -1.691406 3.054688 -1.71875 3.109375 -1.75 C 3.160156 -1.78125 3.191406 -1.8125 3.203125 -1.84375 C 3.222656 -1.882812 3.234375 -1.925781 3.234375 -1.96875 C 3.234375 -2.007812 3.222656 -2.050781 3.203125 -2.09375 C 3.191406 -2.132812 3.160156 -2.171875 3.109375 -2.203125 C 3.054688 -2.234375 2.96875 -2.257812 2.84375 -2.28125 C 2.726562 -2.300781 2.566406 -2.3125 2.359375 -2.3125 L 1.625 -2.3125 Z M 1.625 -1.640625 "/></g></g></g></svg>